<svg xmlns="http://www.w3.org/2000/svg" viewBox="0 0 1200 650">
<defs><linearGradient id="sky" x2="0" y2="1"><stop stop-color="#14273b"/><stop offset="1" stop-color="#607689"/></linearGradient><linearGradient id="grass" x2="0" y2="1"><stop stop-color="#599b65"/><stop offset="1" stop-color="#163f38"/></linearGradient><radialGradient id="light"><stop stop-color="#fff" stop-opacity=".7"/><stop offset="1" stop-color="#fff" stop-opacity="0"/></radialGradient></defs>
<path fill="url(#sky)" d="M0 0h1200v650H0z"/><path fill="#162a38" d="M0 150Q600 400 1200 150v350H0z"/><path fill="none" stroke="#718496" stroke-width="12" d="M0 179Q600 410 1200 179M0 215Q600 430 1200 215M0 250Q600 450 1200 250"/>
<g fill="#e0ede2"><path d="M80 110h240v12H80zM880 110h240v12H880z"/></g><ellipse cx="200" cy="120" rx="290" ry="160" fill="url(#light)"/><ellipse cx="1000" cy="120" rx="290" ry="160" fill="url(#light)"/>
<path fill="url(#grass)" d="M0 375Q600 310 1200 375v275H0z"/><g fill="#b3dd9f" opacity=".08"><path d="M220 357l-80 293H0l175-287zM430 342l-30 308H250l102-304zM640 340l20 310H510l45-310zM850 346l95 304H790l-22-308zM1040 362l160 288h-110l-90-292z"/></g>
<g fill="none" stroke="#c8e3c5" stroke-width="3" opacity=".7"><path d="M90 402Q600 346 1110 402l85 210H5zM600 375v250"/><ellipse cx="600" cy="485" rx="140" ry="50"/><path d="M84 435l143-7-20 120-174 7M1116 435l-143-7 20 120 174 7"/></g><g fill="#e3e9cf"><circle cx="445" cy="468" r="6"/><circle cx="748" cy="521" r="6"/><circle cx="600" cy="440" r="6"/></g><g fill="#eea766"><circle cx="492" cy="530" r="6"/><circle cx="702" cy="455" r="6"/><circle cx="790" cy="470" r="6"/></g><circle cx="615" cy="505" r="4" fill="white"/>
</svg>
